KRSPY-parametric-WideThinMaxGrade-minXOPQ.ufo
<glyph name="zero" format="2">
  <advance width="3777.3663663663665"/>
  <unicode hex="0030"/>
  <outline>
    <contour>
      <point x="83.41441441441441" y="0.0" type="line" identifier="4KX3b3mGg4"/>
      <point x="3693.9519519519517" y="0.0" type="line" identifier="V2j8wYP0nr"/>
      <point x="3693.9519519519517" y="1600.0" type="line" identifier="NaxGoenf3y"/>
      <point x="83.41441441441441" y="1600.0" type="line" identifier="rx6fJSLiri"/>
    </contour>
    <contour>
      <point x="85.40171402633865" y="10.221254287320352" type="line"/>
      <point x="85.40171402633865" y="1589.7787457126797" type="line"/>
      <point x="3691.9646523400274" y="1589.7787457126797" type="line"/>
      <point x="3691.9646523400274" y="10.221254287320352" type="line"/>
    </contour>
  </outline>
</glyph>
<glyph name="two" format="2">
  <advance width="3775.006006006006"/>
  <unicode hex="0032"/>
  <outline>
    <contour>
      <point x="83.24624624624624" y="0.0" type="line"/>
      <point x="3691.7837837837837" y="0.0" type="line" identifier="pzdvPTirLJ"/>
      <point x="3691.7837837837837" y="15.403974545115691" type="line" identifier="91SxUS0iwG"/>
      <point x="3689.7837837837837" y="15.403974545115691" type="line" identifier="fP7EN0pUcl"/>
      <point x="3689.7837837837837" y="9.713238764289816" type="line" identifier="eb458Bdvng"/>
      <point x="85.23354585817049" y="9.713238764289816" type="line"/>
      <point x="85.23354585817049" y="421.7133169205241" type="line" identifier="9fjc25rkUx"/>
      <point x="3687.7834711588466" y="1084.8221735248762" type="line" identifier="yyb1NCCI5w"/>
      <point x="3687.7834711588466" y="1600.0" type="line" identifier="5FogYRSgkk"/>
      <point x="86.24624624624624" y="1600.0" type="line" identifier="svlFvrau4c"/>
      <point x="86.24624624624624" y="1583.6067448830213" type="line" identifier="LQ9fBsTy9K"/>
      <point x="88.24624624624624" y="1583.6067448830213" type="line" identifier="jS6EyIAKtm"/>
      <point x="88.24624624624624" y="1590.3121620118618" type="line"/>
      <point x="3685.7834711588466" y="1590.3121620118618" type="line" identifier="N6CMAjhNlU"/>
      <point x="3685.7834711588466" y="1090.836872908945" type="line" identifier="yK1d5IcluK"/>
      <point x="83.24624624624624" y="427.7774411047684" type="line" identifier="teVKnpBcVb"/>
    </contour>
  </outline>
</glyph>
<glyph name="three" format="2">
  <advance width="3775.222222222222"/>
  <unicode hex="0033"/>
  <outline>
    <contour>
      <point x="83.36636636636636" y="0.0" type="line" identifier="O9abUc1nmN"/>
      <point x="3691.87987987988" y="0.0" type="line" identifier="kMJYMTfXCq"/>
      <point x="3691.87987987988" y="802.4927419912406" type="line" identifier="su2XmdS8e8"/>
      <point x="2459.4614464314163" y="802.4927419912406" type="line" identifier="JQaOzDQqlF"/>
      <point x="2459.4614464314163" y="801.9015021027034" type="line"/>
      <point x="3683.87987987988" y="1121.013490968446" type="line" identifier="S91TzLL02W"/>
      <point x="3683.87987987988" y="1600.0" type="line" identifier="xg8x2Ki40p"/>
      <point x="85.36636636636636" y="1600.0" type="line" identifier="pE1XSRiy68"/>
      <point x="85.36636636636636" y="1586.2716229743257" type="line" identifier="5lNstGRcSF"/>
      <point x="87.36636636636636" y="1586.2716229743257" type="line" identifier="AcE5xKDZfE"/>
      <point x="87.36636636636636" y="1590.2836349863378" type="line" identifier="7ogBYufWpl"/>
      <point x="3681.87987987988" y="1590.2836349863378" type="line" identifier="RHLvSX2Jv6"/>
      <point x="3681.87987987988" y="1124.1739336934531" type="line" identifier="YUjTrmoWd9"/>
      <point x="2459.4935085235384" y="805.4556568580593" type="line"/>
      <point x="2459.4935085235384" y="803.4579714849986" type="line" identifier="iic1IBkDqp"/>
      <point x="800.1171622072524" y="803.4579714849986" type="line" identifier="lRLJEhXMlO"/>
      <point x="800.1171622072524" y="796.9380010641273" type="line" identifier="8aKgEELrVU"/>
      <point x="3689.87987987988" y="796.9380010641273" type="line" identifier="Dm8zjmbhNr"/>
      <point x="3689.87987987988" y="9.713238764289816" type="line" identifier="xv9CFHiFgB"/>
      <point x="84.3903903903904" y="9.713238764289816" type="line" identifier="YajKQV3MHP"/>
      <point x="84.3903903903904" y="12.407055704352999" type="line" identifier="36SchVkwze"/>
      <point x="83.36636636636636" y="12.407055704352999" type="line" identifier="tVui9PiOjA"/>
    </contour>
  </outline>
</glyph>
<glyph name="four" format="2">
  <advance width="3789.5495495495493"/>
  <unicode hex="0034"/>
  <outline>
    <contour>
      <point x="3285.153153153153" y="0.0" type="line"/>
      <point x="3287.153153153153" y="0.0" type="line"/>
      <point x="3287.153153153153" y="794.6080885690495" type="line"/>
      <point x="3705.5675675675675" y="794.6080885690495" type="line"/>
      <point x="3705.5675675675675" y="804.2197242287332" type="line"/>
      <point x="3287.153153153153" y="804.2197242287332" type="line"/>
      <point x="3287.153153153153" y="1600.0" type="line"/>
      <point x="3285.153153153153" y="1600.0" type="line"/>
      <point x="3285.153153153153" y="804.2197242287332" type="line"/>
      <point x="86.01732964195428" y="804.2197242287332" type="line"/>
      <point x="86.01732964195428" y="1115.9869479088698" type="line"/>
      <point x="576.8619851082314" y="1680.0" type="line"/>
      <point x="573.9100331562794" y="1680.0" type="line"/>
      <point x="84.03003003003003" y="1115.9629238848458" type="line"/>
      <point x="84.03003003003003" y="794.6080885690495" type="line"/>
      <point x="3285.153153153153" y="794.6080885690495" type="line"/>
    </contour>
  </outline>
</glyph>
<glyph name="five" format="2">
  <advance width="3769.4144144144143"/>
  <unicode hex="0035"/>
  <outline>
    <contour>
      <point x="84.4621498375252" y="0.0" type="line" identifier="09VlJ0BjUX"/>
      <point x="3685.975975975976" y="0.0" type="line" identifier="EagWihqFM8"/>
      <point x="3685.975975975976" y="744.2401199998798" type="line" identifier="KfNuQA7eZe"/>
      <point x="84.46246246246247" y="922.068783498213" type="line" identifier="At364YZFEy"/>
      <point x="84.46246246246247" y="1590.2867612357102" type="line" identifier="BcuLfvaQKC"/>
      <point x="3685.975975975976" y="1590.2867612357102" type="line" identifier="3ZUkG35meB"/>
      <point x="3685.975975975976" y="1600.0" type="line" identifier="SaF9ojRFrW"/>
      <point x="83.43843843843844" y="1600.0" type="line" identifier="F4sQEYelA8"/>
      <point x="83.43843843843844" y="915.4731969206443" type="line" identifier="3sQ8t8BZ6b"/>
      <point x="3684.9519519519517" y="737.6445334223113" type="line" identifier="yiV6OCBLHg"/>
      <point x="3684.9519519519517" y="9.713238764289816" type="line" identifier="9kdl9SYsn8"/>
      <point x="86.4621498375252" y="9.713238764289816" type="line" identifier="yZDWuX8LLe"/>
      <point x="86.4621498375252" y="14.186096005915804" type="line" identifier="jYb9001DTm"/>
      <point x="84.4621498375252" y="14.186096005915804" type="line" identifier="ho4DrS0rdW"/>
    </contour>
  </outline>
</glyph>
<glyph name="six" format="2">
  <advance width="3775.078078078078"/>
  <unicode hex="0036"/>
  <outline>
    <contour>
      <point x="83.26995764533302" y="0.0" type="line" identifier="uiw6aBUf4P"/>
      <point x="3691.7837837837837" y="0.0" type="line" identifier="jtYkxiUX6G"/>
      <point x="3691.7837837837837" y="803.0600029458889" type="line" identifier="2G5L37c87I"/>
      <point x="85.25725725725727" y="803.0600029458889" type="line"/>
      <point x="85.25725725725727" y="1246.6106136166195" type="line"/>
      <point x="570.1114327540754" y="1590.032753474195" type="line"/>
      <point x="3689.7837837837837" y="1590.032753474195" type="line"/>
      <point x="3689.7837837837837" y="1585.8703448192937" type="line"/>
      <point x="3690.8074951828708" y="1585.8703448192937" type="line" identifier="Wuidbv6mUe"/>
      <point x="3690.8074951828708" y="1600.0" type="line" identifier="oGvEEuxnYv"/>
      <point x="573.1231231231232" y="1600.0" type="line" identifier="xR3pEHbMJx"/>
      <point x="83.26995764533302" y="1251.8779440100761" type="line" identifier="KnMArb0tv8"/>
    </contour>
    <contour>
      <point x="3689.7837837837837" y="796.4706688670653" type="line"/>
      <point x="3689.7837837837837" y="9.459231002774546" type="line"/>
      <point x="85.25725725725727" y="9.459231002774546" type="line"/>
      <point x="85.25725725725727" y="796.4706688670653" type="line"/>
    </contour>
  </outline>
</glyph>
<glyph name="seven" format="2">
  <advance width="3774.126126126126"/>
  <unicode hex="0037"/>
  <outline>
    <contour>
      <point x="1885.9199259319378" y="0.0" type="line"/>
      <point x="1887.9326263200137" y="0.0" type="line" identifier="PiPrv7Kcoy"/>
      <point x="3690.7837837837837" y="1299.2200368536703" type="line" identifier="PkvwNC9Tx1"/>
      <point x="3690.7837837837837" y="1600.0" type="line" identifier="tgqM27bPOm"/>
      <point x="83.24624624624624" y="1600.0" type="line" identifier="36ml4xRICt"/>
      <point x="83.24624624624624" y="1579.2348805261718" type="line" identifier="aaDZsh5Mah"/>
      <point x="84.27027027027027" y="1579.2348805261718" type="line"/>
      <point x="84.27027027027027" y="1589.7787457126797" type="line"/>
      <point x="3688.7964841718594" y="1589.7787457126797" type="line"/>
      <point x="3688.7964841718594" y="1300.3009315621928" type="line"/>
    </contour>
  </outline>
</glyph>
<glyph name="eight" format="2">
  <advance width="3788.678678678679"/>
  <unicode hex="0038"/>
  <outline>
    <contour>
      <point x="3329.417982547112" y="796.4036498961424" type="line"/>
      <point x="3702.132820508196" y="517.6491085680275" type="line"/>
      <point x="3702.132820508196" y="9.383028674319965" type="line"/>
      <point x="86.5458581704828" y="9.383028674319965" type="line"/>
      <point x="86.5458581704828" y="517.4205015826637" type="line"/>
      <point x="460.24937249561873" y="796.3909495080666" type="line"/>
    </contour>
    <contour>
      <point x="3332.368870371873" y="799.0" type="line"/>
      <point x="3332.368870371873" y="801.0" type="line"/>
      <point x="3702.096096096096" y="1064.6461957452948" type="line"/>
      <point x="3702.096096096096" y="1600.0" type="line"/>
      <point x="87.55855855855856" y="1600.0" type="line"/>
      <point x="87.55855855855856" y="1064.6461957452948" type="line"/>
      <point x="456.3104335566798" y="801.0" type="line"/>
      <point x="456.3104335566798" y="799.0" type="line"/>
      <point x="84.55855855855856" y="520.8325983641299" type="line"/>
      <point x="84.55855855855856" y="0.0" type="line"/>
      <point x="3705.096096096096" y="0.0" type="line"/>
      <point x="3705.096096096096" y="520.8325983641299" type="line"/>
    </contour>
    <contour>
      <point x="460.24937249561873" y="803.8503578653729" type="line"/>
      <point x="89.55855855855856" y="1068.2106971836702" type="line"/>
      <point x="89.5458581704828" y="1590.8709790871953" type="line"/>
      <point x="3699.132820508196" y="1590.8709790871953" type="line"/>
      <point x="3699.12012012012" y="1068.2106971836702" type="line"/>
      <point x="3329.405282159036" y="803.8630582534487" type="line"/>
    </contour>
  </outline>
</glyph>
<glyph name="nine" format="2">
  <advance width="3775.078078078078"/>
  <unicode hex="0039"/>
  <outline>
    <contour>
      <point x="3691.807807807808" y="1600.0" type="line" identifier="uiw6aBUf4P"/>
      <point x="82.33070608145684" y="1600.0" type="line" identifier="jtYkxiUX6G"/>
      <point x="82.33070608145684" y="796.514631748866" type="line" identifier="2G5L37c87I"/>
      <point x="3689.807807807808" y="796.514631748866" type="line"/>
      <point x="3689.807807807808" y="9.58623488353218" type="line"/>
      <point x="85.29429429429429" y="9.58623488353218" type="line"/>
      <point x="85.29429429429429" y="14.126528931333754" type="line"/>
      <point x="84.27027027027027" y="14.126528931333754" type="line" identifier="Wuidbv6mUe"/>
      <point x="84.27027027027027" y="0.0" type="line" identifier="oGvEEuxnYv"/>
      <point x="3691.807807807808" y="0.0" type="line" identifier="xR3pEHbMJx"/>
    </contour>
    <contour>
      <point x="84.31800569338107" y="803.3040457875293" type="line"/>
      <point x="84.31800569338107" y="1590.1597573549525" type="line"/>
      <point x="3689.807807807808" y="1590.1597573549525" type="line"/>
      <point x="3689.807807807808" y="803.3040457875293" type="line"/>
    </contour>
  </outline>
</glyph>
<glyph name="A" format="2">
  <advance width="3775"/>
  <unicode hex="0041"/>
  <outline>
    <contour>
      <point x="82" y="0" type="line" smooth="yes" identifier="jFq8ta4UUc"/>
      <point x="84" y="0" type="line" smooth="yes" identifier="dQz4RxYhG4"/>
      <point x="84" y="793" type="line" smooth="yes" identifier="viYRWe5UN7"/>
      <point x="3689" y="793" type="line" smooth="yes" identifier="QVexAlbAcl"/>
      <point x="3689" y="0" type="line" smooth="yes" identifier="ZgsCdxNJRW"/>
      <point x="3691" y="0" type="line" smooth="yes" identifier="kpn4Kw9J0C"/>
      <point x="3691" y="1600" type="line" smooth="yes" identifier="OBZ5Ayed7M"/>
      <point x="580" y="1600" type="line" smooth="yes" identifier="iDT0uyhKrn"/>
      <point x="82" y="1110" type="line" smooth="yes" identifier="dqVr87m3uJ"/>
    </contour>
    <contour>
      <point x="84" y="802" type="line" smooth="yes" identifier="IIRC9Wy7kQ"/>
      <point x="84" y="1105" type="line" smooth="yes" identifier="VufvPdJ075"/>
      <point x="577" y="1590" type="line" smooth="yes" identifier="FsYtJ2vFnp"/>
      <point x="3689" y="1590" type="line" smooth="yes" identifier="tUsW8L7b0y"/>
      <point x="3689" y="802" type="line" smooth="yes" identifier="eTe9B4y76W"/>
    </contour>
  </outline>
</glyph>
<glyph name="B" format="2">
  <advance width="3776"/>
  <unicode hex="0042"/>
  <outline>
    <contour>
      <point x="82" y="0" type="line" identifier="hvY9r8RmLr"/>
      <point x="3692" y="0" type="line" identifier="9QFpw7nfq7"/>
      <point x="3692" y="528" type="line" identifier="543PerILpr"/>
      <point x="3331" y="799" type="line" identifier="zhomauHW30"/>
      <point x="3331" y="801" type="line" identifier="870ZhtaozS"/>
      <point x="3599" y="1065" type="line" identifier="eGKH52Jgnk"/>
      <point x="3599" y="1600" type="line" identifier="FaP204GrdB"/>
      <point x="82" y="1600" type="line" identifier="JEev70GAj6"/>
    </contour>
    <contour>
      <point x="84" y="804" type="line" identifier="By7dfMihfe"/>
      <point x="84" y="1591" type="line" identifier="1p5hKrurVy"/>
      <point x="3597" y="1591" type="line" identifier="Qby8aMtF2X"/>
      <point x="3597" y="1068" type="line" identifier="9lW01gQyU2"/>
      <point x="3330" y="804" type="line" identifier="xpxyvIzPoc"/>
    </contour>
    <contour>
      <point x="84" y="9" type="line" identifier="jaMSiLrCua"/>
      <point x="84" y="796" type="line" identifier="XSrxNd2axx"/>
      <point x="3328" y="796" type="line" identifier="VyYlzRh5nq"/>
      <point x="3690" y="524" type="line" identifier="lsRGatjQja"/>
      <point x="3690" y="9" type="line" identifier="xhlDJ3CjD5"/>
    </contour>
  </outline>
</glyph>
<glyph name="F" format="2">
  <advance width="3766.654967279592"/>
  <unicode hex="0046"/>
  <outline>
    <contour>
      <point x="82.78684991297604" y="0.0" type="line" identifier="oAgH2tA6DJ"/>
      <point x="84.77414952490028" y="0.0" type="line" identifier="zCZyMcW5ho"/>
      <point x="84.77414952490028" y="792.6998259520782" type="line" identifier="yHYqkMd7LI"/>
      <point x="3448.0534288041795" y="792.6998259520782" type="line" identifier="NmB7yyQuio"/>
      <point x="3448.0534288041795" y="801.7526445364283" type="line" identifier="wQk2C8zPHh"/>
      <point x="84.77414952490028" y="801.7526445364283" type="line" identifier="4cFHKQfHDt"/>
      <point x="84.77414952490028" y="1589.753344936528" type="line" identifier="ZvzwyrcwpS"/>
      <point x="3682.2636390143894" y="1589.753344936528" type="line" identifier="4E754ovOIe"/>
      <point x="3682.2636390143894" y="1584.048522997472" type="line" identifier="vZkeT9KrKR"/>
      <point x="3683.2876630384135" y="1584.048522997472" type="line" identifier="0tk7G4orz6"/>
      <point x="3683.2876630384135" y="1600.0" type="line" identifier="NUrIjqOB7J"/>
      <point x="82.78684991297604" y="1600.0" type="line" identifier="TBAYuCfUFX"/>
    </contour>
  </outline>
</glyph>
<glyph name="M" format="2">
  <advance width="3844.965716467218"/>
  <unicode hex="004D"/>
  <outline>
    <contour>
      <point x="1910.6522769015262" y="80.0" type="line" identifier="0Dn4Xpf57M"/>
      <point x="112.46996546095646" y="1588.0006913820728" type="line"/>
      <point x="86.72610147685224" y="1588.0006913820728" type="line"/>
      <point x="86.72610147685224" y="0.0" type="line"/>
      <point x="84.72610147685224" y="0.0" type="line"/>
      <point x="84.72610147685224" y="1600.0" type="line"/>
      <point x="113.47597447297147" y="1600.0" type="line"/>
      <point x="1911.672236801366" y="91.98680362043726" type="line"/>
      <point x="1933.2934796658521" y="91.98680362043726" type="line" identifier="9aKZPM0HPh"/>
      <point x="3732.4530175821465" y="1600.0" type="line"/>
      <point x="3760.2396149903657" y="1600.0" type="line"/>
      <point x="3760.2396149903657" y="0.0" type="line"/>
      <point x="3758.2396149903657" y="0.0" type="line"/>
      <point x="3758.2396149903657" y="1588.0006913820728" type="line"/>
      <point x="3733.471726982237" y="1588.0006913820728" type="line"/>
      <point x="1934.3134395656919" y="80.0" type="line" identifier="spdoeeCFft"/>
    </contour>
  </outline>
</glyph>
<glyph name="O" format="2">
  <advance width="3777.750125500876"/>
  <unicode hex="004F"/>
  <outline>
    <contour>
      <point x="3732.712956199443" y="479.1684176669161" type="line" identifier="ob8US3C311"/>
      <point x="3732.712956199443" y="1600.0" type="line" identifier="c9brEFyXXA"/>
      <point x="530.9521473425377" y="1600.0" type="line" identifier="a4Ql951bxG"/>
      <point x="45.07527046566086" y="1112.893394896398" type="line" identifier="kbL68Qh2zr"/>
      <point x="45.07527046566086" y="0.0" type="line" identifier="U6WibAQAUl"/>
      <point x="3247.8233789344904" y="0.0" type="line" identifier="dfgNHTgBfR"/>
    </contour>
    <contour>
      <point x="3730.712956199443" y="486.9397265133001" type="line" identifier="SnrsQD5TLy"/>
      <point x="3249.1462303143985" y="10.98327757186616" type="line" identifier="jjd5iRDXWT"/>
      <point x="47.06257007758509" y="10.98327757186616" type="line" identifier="YbQKHpAtYn"/>
      <point x="47.06257007758509" y="1105.0612113615118" type="line" identifier="vdfGLkskOQ"/>
      <point x="530.0230079929779" y="1589.0167224281338" type="line" identifier="qXlVxK5ShE"/>
      <point x="3730.712956199443" y="1589.0167224281338" type="line" identifier="g70r2r6DwY"/>
    </contour>
  </outline>
</glyph>
<glyph name="P" format="2">
  <advance width="3771.702077452828"/>
  <unicode hex="0050"/>
  <outline>
    <contour>
      <point x="82.78684991297604" y="0.0" type="line" identifier="EG08jqU5fb"/>
      <point x="84.77414952490028" y="0.0" type="line" identifier="osRzIFK2Cu"/>
      <point x="84.77414952490028" y="605.8693438182928" type="line" identifier="hIFVovVRwe"/>
      <point x="3457.101521942363" y="828.0145250355461" type="line" identifier="Tt6D8zYZmU"/>
      <point x="3457.101521942363" y="1600.0" type="line" identifier="6xW04auDFu"/>
      <point x="82.78684991297604" y="1600.0" type="line" identifier="eETO5GBD5v"/>
    </contour>
    <contour>
      <point x="84.77414952490028" y="614.5731948164381" type="line" identifier="PIBVN1PGv1"/>
      <point x="84.77414952490028" y="1589.7787457126797" type="line" identifier="IZIZQr2gYJ"/>
      <point x="3455.101521942363" y="1589.7787457126797" type="line" identifier="2c4LCF1E1R"/>
      <point x="3455.101521942363" y="836.6608229851473" type="line" identifier="1WCnzth1GX"/>
    </contour>
  </outline>
</glyph>
<glyph name="Q" format="2">
  <advance width="3777.892393895397"/>
  <unicode hex="0051"/>
  <outline>
    <contour>
      <point x="3732.674855035216" y="1600.0254007761516" type="line" identifier="c9brEFyXXA"/>
      <point x="530.9521473425377" y="1600.0254007761516" type="line" identifier="a4Ql951bxG"/>
      <point x="45.07527046566086" y="1245.359010662314" type="line" identifier="kbL68Qh2zr"/>
      <point x="45.07527046566086" y="0.025400776151526902" type="line" identifier="U6WibAQAUl"/>
      <point x="3732.674855035216" y="0.025400776151526902" type="line" identifier="dfgNHTgBfR"/>
    </contour>
    <contour>
      <point x="3730.6875554232915" y="10.24665506347188" type="line" identifier="jjd5iRDXWT"/>
      <point x="47.06257007758509" y="10.24665506347188" type="line" identifier="YbQKHpAtYn"/>
      <point x="47.06257007758509" y="1239.744062380699" type="line" identifier="vdfGLkskOQ"/>
      <point x="529.7813098383668" y="1589.8041464888313" type="line" identifier="qXlVxK5ShE"/>
      <point x="3730.6875554232915" y="1589.8041464888313" type="line" identifier="g70r2r6DwY"/>
    </contour>
    <contour>
      <point x="1891.3531038546053" y="-215.61100439779116" type="line"/>
      <point x="1893.3531038546053" y="-215.61100439779116" type="line"/>
      <point x="1893.3531038546053" y="2.0" type="line"/>
      <point x="1891.3531038546053" y="2.0" type="line"/>
    </contour>
  </outline>
</glyph>
<glyph name="R" format="2">
  <advance width="3776.8228228228227"/>
  <unicode hex="0052"/>
  <outline>
    <contour>
      <point x="46.22110398686975" y="802.2344777209643" type="line"/>
      <point x="46.19570321071822" y="1589.7787457126797" type="line"/>
      <point x="3726.7472397322244" y="1589.7787457126797" type="line"/>
      <point x="3726.7599401203006" y="1067.160082003926" type="line"/>
      <point x="3367.8320121923725" y="802.2344777209643" type="line"/>
    </contour>
    <contour>
      <point x="3731.7712637562486" y="0.0" type="line"/>
      <point x="3731.7839641443247" y="526.3882621360099" type="line"/>
      <point x="3370.8320121923725" y="797.0255781306832" type="line"/>
      <point x="3370.8320121923725" y="799.0255781306832" type="line"/>
      <point x="3728.7599401203006" y="1062.938482025569" type="line"/>
      <point x="3728.7472397322244" y="1600.0" type="line"/>
      <point x="44.208403598793986" y="1600.0" type="line"/>
      <point x="44.208403598793986" y="0.0" type="line"/>
      <point x="46.208403598793986" y="0.0" type="line"/>
      <point x="46.208403598793986" y="793.3340637935232" type="line"/>
      <point x="3367.8447125804482" y="793.3340637935232" type="line"/>
      <point x="3729.7712637562486" y="521.6078450823195" type="line"/>
      <point x="3729.7712637562486" y="0.0" type="line"/>
    </contour>
  </outline>
</glyph>
<glyph name="S" format="2">
  <advance width="3769.6989512034556"/>
  <unicode hex="0053"/>
  <outline>
    <contour>
      <point x="45.97823649475301" y="0.0" type="line" identifier="09VlJ0BjUX"/>
      <point x="3725.5888320753184" y="0.0" type="line" identifier="EagWihqFM8"/>
      <point x="3725.5888320753184" y="823.8349520691863" type="line" identifier="KfNuQA7eZe"/>
      <point x="70.25888952015079" y="823.8349520691863" type="line" identifier="At364YZFEy"/>
      <point x="70.25888952015079" y="1590.2961399838277" type="line" identifier="BcuLfvaQKC"/>
      <point x="3723.601532463394" y="1590.2961399838277" type="line" identifier="3ZUkG35meB"/>
      <point x="3723.601532463394" y="1585.889414940466" type="line" identifier="DTOJhFIl15"/>
      <point x="3724.625556487418" y="1585.889414940466" type="line" identifier="9KDcrfQ5Ui"/>
      <point x="3724.625556487418" y="1600.0" type="line" identifier="SaF9ojRFrW"/>
      <point x="68.25888952015079" y="1600.0" type="line" identifier="F4sQEYelA8"/>
      <point x="68.25888952015079" y="817.0457334211088" type="line" identifier="3sQ8t8BZ6b"/>
      <point x="3723.601532463394" y="817.0457334211088" type="line" identifier="yiV6OCBLHg"/>
      <point x="3723.601532463394" y="9.713238764289816" type="line" identifier="9kdl9SYsn8"/>
      <point x="47.97792386981576" y="9.713238764289816" type="line" identifier="yZDWuX8LLe"/>
      <point x="47.97792386981576" y="14.187346505664811" type="line" identifier="jYb9001DTm"/>
      <point x="45.97823649475301" y="14.187346505664811" type="line" identifier="ho4DrS0rdW"/>
    </contour>
  </outline>
</glyph>
<glyph name="U" format="2">
  <advance width="3775.8939570200832"/>
  <unicode hex="0055"/>
  <outline>
    <contour>
      <point x="3690.1441441441443" y="1600.0" type="line" smooth="yes"/>
      <point x="3690.1441441441443" y="10.221254287320352" type="line"/>
      <point x="579.5893671449227" y="10.221254287320352" type="line" smooth="yes"/>
      <point x="85.59390621853085" y="499.4425416407398" type="line" smooth="yes"/>
      <point x="85.59390621853085" y="1600.0" type="line"/>
      <point x="83.6066066066066" y="1600.0" type="line" smooth="yes"/>
      <point x="83.6066066066066" y="493.44991237483725" type="line" smooth="yes"/>
      <point x="580.4594594594594" y="0.0" type="line" smooth="yes"/>
      <point x="3692.1441441441443" y="0.0" type="line" smooth="yes"/>
      <point x="3692.1441441441443" y="1600.0" type="line" smooth="yes"/>
    </contour>
  </outline>
</glyph>
<glyph name="V" format="2">
  <advance width="3775.8939570200832"/>
  <unicode hex="0056"/>
  <outline>
    <contour>
      <point x="85.73617461305147" y="1600.0" type="line" smooth="yes"/>
      <point x="85.73617461305147" y="10.221254287320352" type="line"/>
      <point x="3196.430391352313" y="10.221254287320352" type="line" smooth="yes"/>
      <point x="3690.2864125386645" y="500.47127307487665" type="line" smooth="yes"/>
      <point x="3690.2864125386645" y="1600.0" type="line"/>
      <point x="3692.2864125386645" y="1600.0" type="line" smooth="yes"/>
      <point x="3692.2864125386645" y="493.44991237483725" type="line" smooth="yes"/>
      <point x="3195.4095356617877" y="0.0" type="line" smooth="yes"/>
      <point x="83.74887500112725" y="0.0" type="line" smooth="yes"/>
      <point x="83.74887500112725" y="1600.0" type="line" smooth="yes"/>
    </contour>
  </outline>
</glyph>
<glyph name="W" format="2">
  <advance width="5343"/>
  <unicode hex="0057"/>
  <outline>
    <contour>
      <point x="412" y="1600" type="line" smooth="yes" identifier="12Pyby1xY2"/>
      <point x="410" y="1600" type="line" smooth="yes" identifier="5LJg4ajoG6"/>
      <point x="410" y="0" type="line" smooth="yes" identifier="ZqTZqAY3uY"/>
      <point x="2464" y="0" type="line" smooth="yes" identifier="rCeQLyjlsN"/>
      <point x="2670" y="297" type="line"/>
      <point x="2671" y="297" type="line"/>
      <point x="2835" y="0" type="line" smooth="yes" identifier="Pkl7cZ37MU"/>
      <point x="4436" y="0" type="line" smooth="yes" identifier="R4lklfJsHA"/>
      <point x="4933" y="493" type="line" smooth="yes" identifier="7g7f8Wu7K4"/>
      <point x="4933" y="1600" type="line" smooth="yes" identifier="RTOJW56qXy"/>
      <point x="4931" y="1600" type="line" identifier="JfSFAkWGZC"/>
      <point x="4931" y="498" type="line" smooth="yes" identifier="WWvGwSpq0g"/>
      <point x="4438" y="10" type="line" smooth="yes" identifier="oee4nqI8Wl"/>
      <point x="2837" y="10" type="line" identifier="Ljn2lpvpG8"/>
      <point x="2673" y="305" type="line"/>
      <point x="2673" y="1307" type="line" smooth="yes"/>
      <point x="2671" y="1307" type="line"/>
      <point x="2671" y="314" type="line"/>
      <point x="2671" y="309" type="line"/>
      <point x="2463" y="10" type="line" identifier="GlWB6PG54Z"/>
      <point x="412" y="10" type="line" identifier="iqeTRv7HXg"/>
    </contour>
  </outline>
</glyph>
<glyph name="X" format="2">
  <advance width="3788.678678678679"/>
  <unicode hex="0058"/>
  <outline>
    <contour>
      <point x="3329.3671809948087" y="794.8131705278853" type="line"/>
      <point x="3703.057994931869" y="515.1885549212876" type="line"/>
      <point x="3703.057994931869" y="0.0" type="line"/>
      <point x="3705.057994931869" y="0.0" type="line"/>
      <point x="3705.057994931869" y="520.3753843934024" type="line"/>
      <point x="3331.3798813828844" y="799.0" type="line"/>
      <point x="3331.3798813828844" y="801.0" type="line"/>
      <point x="3702.033970907845" y="1064.9129038948859" type="line"/>
      <point x="3702.033970907845" y="1600.0" type="line"/>
      <point x="3700.0342835327815" y="1600.0" type="line"/>
      <point x="3700.0342835327815" y="1070.0997333670007" type="line"/>
      <point x="3329.3671809948087" y="805.1868294721147" type="line"/>
      <point x="460.21127133139146" y="805.1868294721147" type="line"/>
      <point x="89.54416879341804" y="1070.0997333670007" type="line"/>
      <point x="89.54416879341804" y="1600.0" type="line"/>
      <point x="87.54448141835529" y="1600.0" type="line"/>
      <point x="87.54448141835529" y="1064.9129038948859" type="line"/>
      <point x="457.24799574349123" y="801.0" type="line"/>
      <point x="457.24799574349123" y="799.0" type="line"/>
      <point x="84.52045739433127" y="520.3753843934024" type="line"/>
      <point x="84.52045739433127" y="0.0" type="line"/>
      <point x="86.52045739433127" y="0.0" type="line"/>
      <point x="86.52045739433127" y="515.1885549212876" type="line"/>
      <point x="460.21127133139146" y="794.8131705278853" type="line"/>
    </contour>
  </outline>
</glyph>
<glyph name="Y" format="2">
  <advance width="3774.3841378916454"/>
  <unicode hex="0059"/>
  <outline>
    <contour>
      <point x="1887.1683575467362" y="-1.926551175800425" type="line" identifier="XKjckKJ7m9"/>
      <point x="1889.1680449217988" y="0.0" type="line" identifier="WihjL321cU"/>
      <point x="1889.1680449217988" y="684.8163208253299" type="line" identifier="rvzWMWl6O1"/>
      <point x="3690.948825702579" y="937.1671641611582" type="line" identifier="YbKEFhFR3q"/>
      <point x="3690.948825702579" y="1630.8248188128068" type="line" identifier="wnC8PudY2b"/>
      <point x="3688.948825702579" y="1630.8248188128068" type="line" identifier="spI4xe8t4f"/>
      <point x="3688.948825702579" y="945.8040052064076" type="line" identifier="Jw55i2s2Mm"/>
      <point x="1889.1680449217988" y="694.4404614825036" type="line" identifier="9ncbEH2hEb"/>
      <point x="1887.1683575467362" y="694.4404614825036" type="line" identifier="u7HFbTQwMo"/>
      <point x="85.43499956412869" y="945.8040052064076" type="line" identifier="oy8ifCCtGL"/>
      <point x="85.43499956412869" y="1630.8248188128068" type="line" identifier="ah5yat5gKV"/>
      <point x="83.43531218906595" y="1630.8248188128068" type="line" identifier="fJXhpKV79E"/>
      <point x="83.43531218906595" y="937.1671641611582" type="line" identifier="k3vH9oxqcN"/>
      <point x="1887.1683575467362" y="684.8163208253299" type="line" identifier="3Kveia3O9h"/>
    </contour>
  </outline>
</glyph>
<glyph name="Z" format="2">
  <advance width="3775.981981981982"/>
  <unicode hex="005A"/>
  <outline>
    <contour>
      <point x="83.24624624624624" y="0.0" type="line"/>
      <point x="3693.7357357357355" y="0.0" type="line" identifier="pzdvPTirLJ"/>
      <point x="3693.7357357357355" y="364.5309994679364" type="line" identifier="91SxUS0iwG"/>
      <point x="3691.7357357357355" y="364.5309994679364" type="line"/>
      <point x="3691.7357357357355" y="10.221254287320352" type="line"/>
      <point x="85.23354585817049" y="10.221254287320352" type="line"/>
      <point x="85.23354585817049" y="423.15706697688677" type="line"/>
      <point x="3687.789098407717" y="1387.064067070073" type="line" identifier="yyb1NCCI5w"/>
      <point x="3687.789098407717" y="1600.0" type="line" identifier="5FogYRSgkk"/>
      <point x="86.24624624624624" y="1600.0" type="line" identifier="svlFvrau4c"/>
      <point x="86.24624624624624" y="1237.6178881584287" type="line" identifier="LQ9fBsTy9K"/>
      <point x="88.24624624624624" y="1237.6178881584287" type="line"/>
      <point x="88.24624624624624" y="1589.7787457126797" type="line"/>
      <point x="3685.7878479079677" y="1589.7787457126797" type="line"/>
      <point x="3685.7878479079677" y="1388.0217154091029" type="line"/>
      <point x="83.24624624624624" y="424.19241463685904" type="line" identifier="teVKnpBcVb"/>
    </contour>
  </outline>
</glyph>
<glyph name="C.wide" format="2">
  <advance width="3621.402312222132"/>
  <outline>
    <contour>
      <point x="83.55418180943707" y="0.0" type="line" identifier="7lPhzTnk2Z"/>
      <point x="3536.9515942368794" y="0.0" type="line" identifier="qJVLZGnkwh"/>
      <point x="3536.9515942368794" y="10.348258168077987" type="line" identifier="Y750RHTvDj"/>
      <point x="84.57820583346108" y="10.348258168077987" type="line" identifier="L2LsGnXiZ2"/>
      <point x="84.59090622153686" y="1103.7598138679218" type="line" identifier="sUWsr03vF4"/>
      <point x="577.9535361187012" y="1589.651741831922" type="line" identifier="dbOUe6OhxL"/>
      <point x="3535.9515942368794" y="1589.651741831922" type="line" identifier="5BjRbcud80"/>
      <point x="3535.9515942368794" y="1600.0" type="line" identifier="9eJelv8BOw"/>
      <point x="580.4070346622899" y="1600.0" type="line" identifier="lfZev3ICaC"/>
      <point x="83.55418180943707" y="1109.5094463833202" type="line" identifier="V1EWIdPahq"/>
    </contour>
  </outline>
</glyph>
<glyph name="E.wide" format="2">
  <advance width="3768.773211650089"/>
  <outline>
    <contour>
      <point x="83.75012550087625" y="0.0" type="line" identifier="fZynkQ4XHB"/>
      <point x="3685.2876630384135" y="0.0" type="line" identifier="FAQNpgUPxV"/>
      <point x="3685.2876630384135" y="9.453291128966804" type="line" identifier="5cgTYOhATF"/>
      <point x="85.73742511280048" y="9.453291128966804" type="line" identifier="bWs42DaCgU"/>
      <point x="85.73742511280048" y="796.495874252631" type="line" identifier="VtD2aADJmn"/>
      <point x="3588.4997489982475" y="796.495874252631" type="line" identifier="PpbsFdHAnS"/>
      <point x="3588.4997489982475" y="803.5044383723061" type="line" identifier="8WuC5p8Ax5"/>
      <point x="85.73742511280048" y="803.5044383723061" type="line" identifier="m39IWn9ntA"/>
      <point x="85.73742511280048" y="1590.5501477453429" type="line" identifier="gQ21I4SHQg"/>
      <point x="3684.2876630384135" y="1590.5501477453429" type="line" identifier="eqNb2VTwYs"/>
      <point x="3684.2876630384135" y="1600.0" type="line" identifier="qYRmo14Il5"/>
      <point x="83.75012550087625" y="1600.0" type="line" identifier="HmJIcnLWfC"/>
    </contour>
  </outline>
</glyph>
<glyph name="F.wide" format="2">
  <advance width="3766"/>
  <outline>
    <contour>
      <point x="82" y="0" type="line" identifier="oAgH2tA6DJ"/>
      <point x="84" y="0" type="line" identifier="zCZyMcW5ho"/>
      <point x="84" y="793" type="line" identifier="yHYqkMd7LI"/>
      <point x="3447" y="793" type="line" identifier="NmB7yyQuio"/>
      <point x="3447" y="802" type="line" identifier="wQk2C8zPHh"/>
      <point x="84" y="802" type="line" identifier="4cFHKQfHDt"/>
      <point x="84" y="1590" type="line" identifier="ZvzwyrcwpS"/>
      <point x="3683" y="1590" type="line" identifier="4E754ovOIe"/>
      <point x="3683" y="1600" type="line" identifier="NUrIjqOB7J"/>
      <point x="82" y="1600" type="line" identifier="TBAYuCfUFX"/>
    </contour>
  </outline>
</glyph>
<glyph name="G.wide" format="2">
  <advance width="3774"/>
  <outline>
    <contour>
      <point x="83" y="0" type="line" identifier="7lPhzTnk2Z"/>
      <point x="3692" y="0" type="line" identifier="qJVLZGnkwh"/>
      <point x="3692" y="803" type="line" identifier="uek1NNj7De"/>
      <point x="2468" y="803" type="line" identifier="qcvimxjndX"/>
      <point x="2468" y="797" type="line" identifier="EARaY3Su65"/>
      <point x="3690" y="797" type="line" identifier="4m6dHLVhZq"/>
      <point x="3690" y="10" type="line" identifier="Y750RHTvDj"/>
      <point x="85" y="10" type="line" identifier="L2LsGnXiZ2"/>
      <point x="85" y="1105" type="line" identifier="sUWsr03vF4"/>
      <point x="578" y="1590" type="line" identifier="dbOUe6OhxL"/>
      <point x="3691" y="1590" type="line" identifier="5BjRbcud80"/>
      <point x="3691" y="1600" type="line" identifier="9eJelv8BOw"/>
      <point x="580" y="1600" type="line" identifier="lfZev3ICaC"/>
      <point x="83" y="1110" type="line" identifier="V1EWIdPahq"/>
    </contour>
  </outline>
</glyph>
<glyph name="K.alt" format="2">
  <advance width="3776.5775805835865"/>
  <outline>
    <contour>
      <point x="84.7821605389173" y="0.0" type="line" identifier="wmNm7XZsaF"/>
      <point x="84.7821605389173" y="794.3051550048547" type="line" identifier="O22liaP9Qk"/>
      <point x="3317.5808360913466" y="794.3051550048547" type="line" identifier="ELFBWIb1vd"/>
      <point x="3691.2589496403307" y="515.3579735892049" type="line" identifier="DzXo67YEfw"/>
      <point x="3691.2589496403307" y="0.0" type="line" identifier="aKpYWD78l2"/>
      <point x="3693.2589496403307" y="0.0" type="line" identifier="ChS7KlqGi6"/>
      <point x="3693.2589496403307" y="520.8496123751379" type="line" identifier="sWLgkU8Vey"/>
      <point x="3320.5551226902576" y="799.0" type="line" identifier="Of0iQc0wBG"/>
      <point x="3320.5551226902576" y="801.0" type="line" identifier="j4jnmtDJYB"/>
      <point x="3680.626193761329" y="1600.0" type="line" identifier="dMJ1ywOKQQ"/>
      <point x="3678.626193761329" y="1600.0" type="line" identifier="08OWjR2YBJ"/>
      <point x="3320.5401347293237" y="805.2884325767209" type="line" identifier="g4YLdZEoM3"/>
      <point x="84.7821605389173" y="805.2884325767209" type="line" identifier="uZuki3Isec"/>
      <point x="84.7821605389173" y="1600.0" type="line" identifier="nRfcNgqJ4H"/>
      <point x="82.7821605389173" y="1600.0" type="line" identifier="3XJlWt89ad"/>
      <point x="82.7821605389173" y="0.0" type="line" identifier="wdbO8kCovY"/>
    </contour>
  </outline>
</glyph>
<glyph name="R.alt" format="2">
  <advance width="3776.941379818257"/>
  <outline>
    <contour>
      <point x="46.268526785043306" y="802.2344777209643" type="line"/>
      <point x="46.24312600889178" y="1589.7787457126797" type="line"/>
      <point x="3726.7946625303985" y="1589.7787457126797" type="line"/>
      <point x="3726.807362918474" y="802.2344777209643" type="line"/>
    </contour>
    <contour>
      <point x="3731.987479972465" y="0.0" type="line"/>
      <point x="3371.4929975020063" y="795.7465513561609" type="line"/>
      <point x="3729.518584650717" y="795.765308852396" type="line"/>
      <point x="3728.7946625303985" y="1600.0" type="line"/>
      <point x="44.25582639696754" y="1600.0" type="line"/>
      <point x="44.25582639696754" y="0.0" type="line"/>
      <point x="46.25582639696754" y="0.0" type="line"/>
      <point x="46.25582639696754" y="793.3340637935232" type="line"/>
      <point x="3369.87908929951" y="793.3340637935232" type="line"/>
      <point x="3729.987479972465" y="0.0" type="line"/>
    </contour>
  </outline>
</glyph>
<glyph name="S.wide" format="2">
  <advance width="3545.915915915916"/>
  <outline>
    <contour>
      <point x="17.0" y="0.0" type="line" identifier="09VlJ0BjUX"/>
      <point x="3520.915915915916" y="0.0" type="line" identifier="EagWihqFM8"/>
      <point x="3520.915915915916" y="803.6026026026026" type="line" identifier="KfNuQA7eZe"/>
      <point x="17.0" y="803.6026026026026" type="line" identifier="At364YZFEy"/>
      <point x="17.0" y="1194.8634971307645" type="line"/>
      <point x="344.84366648931217" y="1590.7439752064377" type="line"/>
      <point x="3520.915915915916" y="1590.7439752064377" type="line" identifier="3ZUkG35meB"/>
      <point x="3520.915915915916" y="1600.0" type="line" identifier="SaF9ojRFrW"/>
      <point x="349.0628316003691" y="1600.0" type="line"/>
      <point x="15.0" y="1194.8634971307645" type="line"/>
      <point x="15.0" y="796.3973973973974" type="line" identifier="3sQ8t8BZ6b"/>
      <point x="3518.915915915916" y="796.3973973973974" type="line" identifier="yiV6OCBLHg"/>
      <point x="3518.915915915916" y="9.25602479356233" type="line" identifier="9kdl9SYsn8"/>
      <point x="17.0" y="9.25602479356233" type="line" identifier="yZDWuX8LLe"/>
    </contour>
  </outline>
</glyph>
<glyph name="Z.wide" format="2">
  <advance width="3775.981981981982"/>
  <outline>
    <contour>
      <point x="83.24624624624624" y="0.0" type="line"/>
      <point x="3691.809184559935" y="0.0" type="line" identifier="pzdvPTirLJ"/>
      <point x="3691.809184559935" y="10.20855389924459" type="line"/>
      <point x="85.24624624624624" y="10.20855389924459" type="line"/>
      <point x="85.24624624624624" y="425.024024024024" type="line"/>
      <point x="3687.7128960792625" y="1383.2704836969099" type="line" identifier="yyb1NCCI5w"/>
      <point x="3687.7128960792625" y="1600.0" type="line" identifier="5FogYRSgkk"/>
      <point x="66.98073448824199" y="1600.0" type="line" identifier="svlFvrau4c"/>
      <point x="66.98073448824199" y="1589.7914461007554" type="line"/>
      <point x="3685.711645579513" y="1589.7914461007554" type="line"/>
      <point x="3685.711645579513" y="1384.2535328120914" type="line"/>
      <point x="83.24624624624624" y="426.0847724601478" type="line" identifier="teVKnpBcVb"/>
    </contour>
  </outline>
</glyph>
